{
  "accessors": [
    {
      "bufferView": 2,
      "componentType": 5126,
      "count": 131,
      "max": [
        0.6790099740028381,
        0.19479447603225708,
        0.2764280438423157
      ],
      "min": [
        -0.6790099740028381,
        -0.24319475889205933,
        -0.18067309260368347
      ],
      "type": "VEC3"
    },
    {
      "bufferView": 2,
      "byteOffset": 1572,
      "componentType": 5126,
      "count": 131,
      "max": [
        0.9953522682189941,
        0.9822149872779846,
        0.9560720324516296
      ],
      "min": [
        -0.9953522682189941,
        -0.9124283790588379,
        -0.9598636031150818
      ],
      "type": "VEC3"
    },
    {
      "bufferView": 3,
      "componentType": 5126,
      "count": 131,
      "max": [
        0.9939289689064026,
        0.8122063875198364,
        0.9728347659111023,
        1.0
      ],
      "min": [
        -0.9955982565879822,
        -0.978327751159668,
        -0.9838943481445313,
        1.0
      ],
      "type": "VEC4"
    },
    {
      "bufferView": 1,
      "componentType": 5126,
      "count": 131,
      "max": [
        0.9967745542526245,
        0.5392155647277832
      ],
      "min": [
        0.4322759509086609,
        0.013908257707953453
      ],
      "type": "VEC2"
    },
    {
      "bufferView": 1,
      "byteOffset": 1048,
      "componentType": 5126,
      "count": 131,
      "max": [
        0.9967745542526245,
        0.5392155647277832
      ],
      "min": [
        0.4322759509086609,
        0.013908257707953453
      ],
      "type": "VEC2"
    },
    {
      "bufferView": 0,
      "componentType": 5125,
      "count": 372,
      "type": "SCALAR"
    },
    {
      "bufferView": 2,
      "byteOffset": 3144,
      "componentType": 5126,
      "count": 92,
      "max": [
        0.14559626579284668,
        0.07634198665618896,
        0.08849700540304184
      ],
      "min": [
        -0.503075361251831,
        -0.08045649528503418,
        -0.06660457700490952
      ],
      "type": "VEC3"
    },
    {
      "bufferView": 2,
      "byteOffset": 4248,
      "componentType": 5126,
      "count": 92,
      "max": [
        0.6604443788528442,
        0.672554075717926,
        0.7612676024436951
      ],
      "min": [
        -0.6604443788528442,
        -0.8207129240036011,
        -0.7245975136756897
      ],
      "type": "VEC3"
    },
    {
      "bufferView": 3,
      "byteOffset": 2096,
      "componentType": 5126,
      "count": 92,
      "max": [
        0.9989352822303772,
        0.8942086100578308,
        0.8994523882865906,
        1.0
      ],
      "min": [
        -0.9989352822303772,
        -0.8731915950775146,
        -0.8186153173446655,
        -1.0
      ],
      "type": "VEC4"
    },
    {
      "bufferView": 1,
      "byteOffset": 2096,
      "componentType": 5126,
      "count": 92,
      "max": [
        0.31184107065200806,
        0.4009140729904175
      ],
      "min": [
        0.25446462631225586,
        0.36138176918029785
      ],
      "type": "VEC2"
    },
    {
      "bufferView": 1,
      "byteOffset": 2832,
      "componentType": 5126,
      "count": 92,
      "max": [
        0.31184107065200806,
        0.4009140729904175
      ],
      "min": [
        0.25446462631225586,
        0.36138176918029785
      ],
      "type": "VEC2"
    },
    {
      "bufferView": 0,
      "byteOffset": 1488,
      "componentType": 5125,
      "count": 144,
      "type": "SCALAR"
    },
    {
      "bufferView": 2,
      "byteOffset": 5352,
      "componentType": 5126,
      "count": 1256,
      "max": [
        1.7144445180892944,
        1.783166766166687,
        2.0027151107788086
      ],
      "min": [
        -1.710389494895935,
        -2.15596079826355,
        -2.621953248977661
      ],
      "type": "VEC3"
    },
    {
      "bufferView": 2,
      "byteOffset": 20424,
      "componentType": 5126,
      "count": 1256,
      "max": [
        0.9995399713516235,
        0.9983564019203186,
        0.9996734857559204
      ],
      "min": [
        -0.9992431402206421,
        -0.9968816637992859,
        -0.9992729425430298
      ],
      "type": "VEC3"
    },
    {
      "bufferView": 3,
      "byteOffset": 3568,
      "componentType": 5126,
      "count": 1256,
      "max": [
        0.998154878616333,
        0.9999199509620667,
        0.9895156025886536,
        1.0
      ],
      "min": [
        -0.9994736313819885,
        -0.9987192153930664,
        -0.9999973177909851,
        -1.0
      ],
      "type": "VEC4"
    },
    {
      "bufferView": 1,
      "byteOffset": 3568,
      "componentType": 5126,
      "count": 1256,
      "max": [
        0.991804838180542,
        0.9926814436912537
      ],
      "min": [
        0.007318556308746338,
        0.0073184967041015625
      ],
      "type": "VEC2"
    },
    {
      "bufferView": 1,
      "byteOffset": 13616,
      "componentType": 5126,
      "count": 1256,
      "max": [
        0.991804838180542,
        0.9926814436912537
      ],
      "min": [
        0.007318556308746338,
        0.0073184967041015625
      ],
      "type": "VEC2"
    },
    {
      "bufferView": 0,
      "byteOffset": 2064,
      "componentType": 5125,
      "count": 3168,
      "type": "SCALAR"
    }
  ],
  "asset": {
    "extras": {
      "author": "dartuchiwa (https://sketchfab.com/dartuchiwa)",
      "license": "CC-BY-4.0 (http://creativecommons.org/licenses/by/4.0/)",
      "source": "https://sketchfab.com/3d-models/frank-98946f7b9d6d4740a281dc8287f4e34a",
      "title": "Frank"
    },
    "generator": "Sketchfab-13.68.0",
    "version": "2.0"
  },
  "bufferViews": [
    {
      "buffer": 0,
      "byteLength": 14736,
      "name": "floatBufferViews",
      "target": 34963
    },
    {
      "buffer": 0,
      "byteLength": 23664,
      "byteOffset": 14736,
      "byteStride": 8,
      "name": "floatBufferViews",
      "target": 34962
    },
    {
      "buffer": 0,
      "byteLength": 35496,
      "byteOffset": 38400,
      "byteStride": 12,
      "name": "floatBufferViews",
      "target": 34962
    },
    {
      "buffer": 0,
      "byteLength": 23664,
      "byteOffset": 73896,
      "byteStride": 16,
      "name": "floatBufferViews",
      "target": 34962
    }
  ],
  "buffers": [
    {
      "byteLength": 97560,
      "uri": "scene.bin"
    }
  ],
  "images": [
    {
      "uri": "textures/Frank_baseColor.png"
    },
    {
      "uri": "textures/Frank_metallicRoughness.png"
    },
    {
      "uri": "textures/Frank_normal.png"
    }
  ],
  "materials": [
    {
      "doubleSided": true,
      "name": "Frank",
      "normalTexture": {
        "index": 2
      },
      "occlusionTexture": {
        "index": 1,
        "strength": 0.3632282629245665
      },
      "pbrMetallicRoughness": {
        "baseColorTexture": {
          "index": 0
        },
        "metallicFactor": 0.0,
        "metallicRoughnessTexture": {
          "index": 1
        }
      }
    }
  ],
  "meshes": [
    {
      "name": "Eye_Frank_0",
      "primitives": [
        {
          "attributes": {
            "NORMAL": 1,
            "POSITION": 0,
            "TANGENT": 2,
            "TEXCOORD_0": 3,
            "TEXCOORD_1": 4
          },
          "indices": 5,
          "material": 0,
          "mode": 4
        }
      ]
    },
    {
      "name": "Tooth_Frank_0",
      "primitives": [
        {
          "attributes": {
            "NORMAL": 7,
            "POSITION": 6,
            "TANGENT": 8,
            "TEXCOORD_0": 9,
            "TEXCOORD_1": 10
          },
          "indices": 11,
          "material": 0,
          "mode": 4
        }
      ]
    },
    {
      "name": "LP_Frank_0",
      "primitives": [
        {
          "attributes": {
            "NORMAL": 13,
            "POSITION": 12,
            "TANGENT": 14,
            "TEXCOORD_0": 15,
            "TEXCOORD_1": 16
          },
          "indices": 17,
          "material": 0,
          "mode": 4
        }
      ]
    }
  ],
  "nodes": [
    {
      "children": [
        1
      ],
      "matrix": [
        1.0,
        0.0,
        0.0,
        0.0,
        0.0,
        2.220446049250313e-16,
        -1.0,
        0.0,
        0.0,
        1.0,
        2.220446049250313e-16,
        0.0,
        0.0,
        0.0,
        0.0,
        1.0
      ],
      "name": "Sketchfab_model"
    },
    {
      "children": [
        2
      ],
      "matrix": [
        1.0,
        0.0,
        0.0,
        0.0,
        0.0,
        0.0,
        1.0,
        0.0,
        0.0,
        -1.0,
        0.0,
        0.0,
        0.0,
        0.0,
        0.0,
        1.0
      ],
      "name": "d45386a5a618440d88a21af509823292.fbx"
    },
    {
      "children": [
        3,
        5,
        7
      ],
      "name": "RootNode"
    },
    {
      "children": [
        4
      ],
      "matrix": [
        99.6355209350586,
        0.0,
        0.0,
        0.0,
        0.0,
        -1.629206793918314e-05,
        -99.99999999999868,
        0.0,
        0.0,
        99.99999999999868,
        -1.629206793918314e-05,
        0.0,
        0.0,
        0.0,
        152.33140563964844,
        1.0
      ],
      "name": "Eye"
    },
    {
      "mesh": 0,
      "name": "Eye_Frank_0"
    },
    {
      "children": [
        6
      ],
      "matrix": [
        100.0,
        0.0,
        0.0,
        0.0,
        0.0,
        -1.629206793918314e-05,
        -99.99999999999868,
        0.0,
        0.0,
        99.99999999999868,
        -1.629206793918314e-05,
        0.0,
        17.873952865600586,
        -57.60688781738281,
        148.97080993652344,
        1.0
      ],
      "name": "Tooth"
    },
    {
      "mesh": 1,
      "name": "Tooth_Frank_0"
    },
    {
      "children": [
        8
      ],
      "matrix": [
        100.0,
        0.0,
        0.0,
        0.0,
        0.0,
        -1.629206793918314e-05,
        -99.99999999999868,
        0.0,
        0.0,
        99.99999999999868,
        -1.629206793918314e-05,
        0.0,
        0.0,
        0.0,
        0.0,
        1.0
      ],
      "name": "LP"
    },
    {
      "mesh": 2,
      "name": "LP_Frank_0"
    }
  ],
  "samplers": [
    {
      "magFilter": 9729,
      "minFilter": 9987,
      "wrapS": 10497,
      "wrapT": 10497
    }
  ],
  "scene": 0,
  "scenes": [
    {
      "name": "Sketchfab_Scene",
      "nodes": [
        0
      ]
    }
  ],
  "textures": [
    {
      "sampler": 0,
      "source": 0
    },
    {
      "sampler": 0,
      "source": 1
    },
    {
      "sampler": 0,
      "source": 2
    }
  ]
}
